
<svg width="600" height="600" viewBox="0 0 460 460" fill="none" xmlns="http://www.w3.org/2000/svg">
<circle cx="230" cy="230" r="230" fill="#131313"/>
<circle opacity="0.9" cx="230" cy="230" r="82" fill="#3BBA9C"/>
<circle cx="230" cy="230" r="79" fill="#2E3047"/>
<path d="M314.5 229.5C314.5 276.447 276.665 314.5 230 314.5C183.335 314.5 145.5 276.447 145.5 229.5C145.5 182.553 183.335 144.5 230 144.5C276.665 144.5 314.5 182.553 314.5 229.5Z" stroke="#353535"/>
<circle cx="230.5" cy="229.5" r="88" stroke="#353535"/>
<path d="M321.5 229.5C321.5 279.753 280.315 320.5 229.5 320.5C178.685 320.5 137.5 279.753 137.5 229.5C137.5 179.247 178.685 138.5 229.5 138.5C280.315 138.5 321.5 179.247 321.5 229.5Z" stroke="#353535"/>
<circle cx="229.5" cy="229.5" r="95" stroke="#353535"/>
<circle cx="230.5" cy="229.5" r="101" stroke="#353535"/>
<path d="M333.5 229.5C333.5 287.494 286.933 334.5 229.5 334.5C172.067 334.5 125.5 287.494 125.5 229.5C125.5 171.506 172.067 124.5 229.5 124.5C286.933 124.5 333.5 171.506 333.5 229.5Z" stroke="#353535"/>
<circle cx="230" cy="229" r="107.5" stroke="#353535"/>
<circle cx="230.5" cy="229.5" r="111" stroke="#353535"/>
<circle cx="230.5" cy="229.5" r="114" stroke="#353535"/>
<path d="M347.5 229.5C347.5 294.115 294.895 346.5 230 346.5C165.105 346.5 112.5 294.115 112.5 229.5C112.5 164.885 165.105 112.5 230 112.5C294.895 112.5 347.5 164.885 347.5 229.5Z" stroke="#353535"/>
<path d="M350.5 229.5C350.5 296.328 296.548 350.5 230 350.5C163.452 350.5 109.5 296.328 109.5 229.5C109.5 162.672 163.452 108.5 230 108.5C296.548 108.5 350.5 162.672 350.5 229.5Z" stroke="#353535"/>
<circle cx="229.5" cy="229.5" r="124" stroke="#353535"/>
<circle cx="230" cy="229" r="127.5" stroke="#353535"/>
<circle cx="230" cy="229" r="130.5" stroke="#353535"/>
<path d="M364.5 229C364.5 302.727 304.286 362.5 230 362.5C155.714 362.5 95.5 302.727 95.5 229C95.5 155.273 155.714 95.5 230 95.5C304.286 95.5 364.5 155.273 364.5 229Z" stroke="#353535"/>
<path d="M370.5 229C370.5 306.598 307.818 369.5 230.5 369.5C153.182 369.5 90.5 306.598 90.5 229C90.5 151.402 153.182 88.5 230.5 88.5C307.818 88.5 370.5 151.402 370.5 229Z" stroke="#353535"/>
<circle cx="230" cy="229" r="143.5" stroke="#353535"/>
<path d="M376.5 229C376.5 309.908 310.687 375.5 229.5 375.5C148.313 375.5 82.5 309.908 82.5 229C82.5 148.092 148.313 82.5 229.5 82.5C310.687 82.5 376.5 148.092 376.5 229Z" stroke="#353535"/>
<circle cx="229.5" cy="229.5" r="150" stroke="#353535"/>
<path d="M383.5 229.5C383.5 313.997 314.555 382.5 229.5 382.5C144.445 382.5 75.5 313.997 75.5 229.5C75.5 145.003 144.445 76.5 229.5 76.5C314.555 76.5 383.5 145.003 383.5 229.5Z" stroke="#353535"/>
<path d="M386.5 229.5C386.5 315.653 316.212 385.5 229.5 385.5C142.788 385.5 72.5 315.653 72.5 229.5C72.5 143.347 142.788 73.5 229.5 73.5C316.212 73.5 386.5 143.347 386.5 229.5Z" stroke="#353535"/>
<path d="M390.5 229.5C390.5 317.864 318.643 389.5 230 389.5C141.357 389.5 69.5 317.864 69.5 229.5C69.5 141.136 141.357 69.5 230 69.5C318.643 69.5 390.5 141.136 390.5 229.5Z" stroke="#353535"/>
<path d="M393.5 229.5C393.5 319.52 320.078 392.5 229.5 392.5C138.922 392.5 65.5 319.52 65.5 229.5C65.5 139.48 138.922 66.5 229.5 66.5C320.078 66.5 393.5 139.48 393.5 229.5Z" stroke="#353535"/>
<path d="M396.5 229C396.5 320.954 321.733 395.5 229.5 395.5C137.267 395.5 62.5 320.954 62.5 229C62.5 137.046 137.267 62.5 229.5 62.5C321.733 62.5 396.5 137.046 396.5 229Z" stroke="#353535"/>
<path d="M402.5 229.5C402.5 325.047 325.268 402.5 230 402.5C134.732 402.5 57.5 325.047 57.5 229.5C57.5 133.953 134.732 56.5 230 56.5C325.268 56.5 402.5 133.953 402.5 229.5Z" stroke="#353535"/>
<path d="M406.5 229.5C406.5 326.701 327.48 405.5 230 405.5C132.52 405.5 53.5 326.701 53.5 229.5C53.5 132.299 132.52 53.5 230 53.5C327.48 53.5 406.5 132.299 406.5 229.5Z" stroke="#353535"/>
<circle cx="230" cy="230" r="179.5" stroke="#353535"/>
<path d="M412.5 229.5C412.5 330.569 330.791 412.5 230 412.5C129.209 412.5 47.5 330.569 47.5 229.5C47.5 128.431 129.209 46.5 230 46.5C330.791 46.5 412.5 128.431 412.5 229.5Z" stroke="#353535"/>
<circle cx="229.5" cy="229.5" r="186" stroke="#353535"/>
<path d="M419.5 229.5C419.5 333.881 334.659 418.5 230 418.5C125.341 418.5 40.5 333.881 40.5 229.5C40.5 125.119 125.341 40.5 230 40.5C334.659 40.5 419.5 125.119 419.5 229.5Z" stroke="#353535"/>
<path d="M422.5 229C422.5 335.314 336.092 421.5 229.5 421.5C122.908 421.5 36.5 335.314 36.5 229C36.5 122.686 122.908 36.5 229.5 36.5C336.092 36.5 422.5 122.686 422.5 229Z" stroke="#353535"/>
<circle cx="230.5" cy="229.5" r="199" stroke="#353535"/>
<path d="M432.5 229.5C432.5 341.06 341.839 431.5 230 431.5C118.161 431.5 27.5 341.06 27.5 229.5C27.5 117.94 118.161 27.5 230 27.5C341.839 27.5 432.5 117.94 432.5 229.5Z" stroke="#353535"/>
<path d="M435.5 229.5C435.5 342.717 343.496 434.5 230 434.5C116.504 434.5 24.5 342.717 24.5 229.5C24.5 116.283 116.504 24.5 230 24.5C343.496 24.5 435.5 116.283 435.5 229.5Z" stroke="#353535"/>
<path d="M439.5 229.5C439.5 344.926 345.705 438.5 230 438.5C114.295 438.5 20.5 344.926 20.5 229.5C20.5 114.074 114.295 20.5 230 20.5C345.705 20.5 439.5 114.074 439.5 229.5Z" stroke="#353535"/>
<circle cx="230.5" cy="229.5" r="212" stroke="#353535"/>
<path d="M445.5 229.5C445.5 348.24 349.018 444.5 230 444.5C110.982 444.5 14.5 348.24 14.5 229.5C14.5 110.76 110.982 14.5 230 14.5C349.018 14.5 445.5 110.76 445.5 229.5Z" stroke="#353535"/>
<path d="M448.5 229.5C448.5 350.451 350.673 448.5 230 448.5C109.327 448.5 11.5 350.451 11.5 229.5C11.5 108.549 109.327 10.5 230 10.5C350.673 10.5 448.5 108.549 448.5 229.5Z" stroke="#353535"/>
<path d="M451.5 229.5C451.5 352.108 352.33 451.5 230 451.5C107.67 451.5 8.5 352.108 8.5 229.5C8.5 106.892 107.67 7.5 230 7.5C352.33 7.5 451.5 106.892 451.5 229.5Z" stroke="#353535"/>
<path d="M455.5 229.5C455.5 353.763 354.541 454.5 230 454.5C105.459 454.5 4.5 353.763 4.5 229.5C4.5 105.237 105.459 4.5 230 4.5C354.541 4.5 455.5 105.237 455.5 229.5Z" stroke="#353535"/>
<path d="M175.809 229.553H176.512V238H175.809V229.553ZM178.621 229.553H179.324V238H178.621V229.553ZM177.215 229.553H177.918V238H177.215V229.553ZM175.105 229.553V238C173.868 238.469 172.586 238.703 171.258 238.703C170.105 238.703 169.002 238.492 167.947 238.068C166.893 237.645 165.965 237.059 165.164 236.311C164.363 235.555 163.722 234.624 163.24 233.518C162.765 232.404 162.527 231.203 162.527 229.914C162.527 228.723 162.758 227.587 163.221 226.506C163.689 225.419 164.314 224.484 165.096 223.703C165.883 222.915 166.818 222.29 167.898 221.828C168.986 221.359 170.125 221.125 171.316 221.125C172.801 221.125 174.181 221.47 175.457 222.16C176.733 222.85 177.775 223.788 178.582 224.973L177.996 225.354C177.254 224.266 176.294 223.407 175.115 222.775C173.943 222.144 172.677 221.828 171.316 221.828C170.223 221.828 169.174 222.043 168.172 222.473C167.176 222.896 166.316 223.469 165.594 224.191C164.871 224.914 164.295 225.777 163.865 226.779C163.442 227.775 163.23 228.82 163.23 229.914C163.23 231.092 163.449 232.193 163.885 233.215C164.327 234.237 164.913 235.093 165.643 235.783C166.378 236.473 167.231 237.017 168.201 237.414C169.171 237.805 170.18 238 171.229 238C172.329 238 173.387 237.828 174.402 237.482V236.809C173.432 237.134 172.413 237.297 171.346 237.297C170.571 237.297 169.816 237.189 169.08 236.975C168.351 236.753 167.674 236.431 167.049 236.008C166.43 235.578 165.887 235.07 165.418 234.484C164.956 233.892 164.591 233.205 164.324 232.424C164.064 231.636 163.934 230.8 163.934 229.914C163.934 228.579 164.262 227.346 164.92 226.213C165.584 225.08 166.482 224.185 167.615 223.527C168.748 222.863 169.982 222.531 171.316 222.531C172.566 222.531 173.729 222.824 174.803 223.41C175.877 223.99 176.753 224.777 177.43 225.773L176.844 226.154C176.232 225.256 175.437 224.546 174.461 224.025C173.491 223.498 172.443 223.234 171.316 223.234C170.411 223.234 169.546 223.41 168.719 223.762C167.892 224.113 167.179 224.589 166.58 225.188C165.988 225.78 165.516 226.49 165.164 227.316C164.812 228.143 164.637 229.009 164.637 229.914C164.637 230.728 164.754 231.493 164.988 232.209C165.229 232.919 165.558 233.54 165.975 234.074C166.398 234.602 166.889 235.057 167.449 235.441C168.009 235.819 168.618 236.105 169.275 236.301C169.939 236.496 170.62 236.594 171.316 236.594C172.397 236.594 173.426 236.411 174.402 236.047V235.344C173.439 235.715 172.433 235.9 171.385 235.9C170.59 235.9 169.832 235.767 169.109 235.5C168.387 235.227 167.742 234.842 167.176 234.348C166.616 233.853 166.17 233.221 165.838 232.453C165.506 231.685 165.34 230.839 165.34 229.914C165.34 228.833 165.607 227.834 166.141 226.916C166.674 225.998 167.4 225.272 168.318 224.738C169.236 224.204 170.236 223.938 171.316 223.938C172.326 223.938 173.263 224.172 174.129 224.641C175.001 225.109 175.711 225.747 176.258 226.555L175.672 226.936C175.19 226.232 174.565 225.676 173.797 225.266C173.035 224.849 172.208 224.641 171.316 224.641C170.359 224.641 169.477 224.878 168.67 225.354C167.863 225.822 167.221 226.46 166.746 227.268C166.277 228.075 166.043 228.957 166.043 229.914C166.043 230.578 166.137 231.197 166.326 231.77C166.515 232.342 166.775 232.837 167.107 233.254C167.439 233.671 167.827 234.025 168.27 234.318C168.719 234.611 169.201 234.833 169.715 234.982C170.229 235.126 170.763 235.197 171.316 235.197C172.417 235.197 173.445 234.979 174.402 234.543V233.869C173.478 234.279 172.479 234.484 171.404 234.484C170.786 234.484 170.203 234.39 169.656 234.201C169.109 234.012 168.615 233.736 168.172 233.371C167.736 233.007 167.387 232.528 167.127 231.936C166.873 231.337 166.746 230.663 166.746 229.914C166.746 229.296 166.867 228.706 167.107 228.147C167.348 227.58 167.674 227.092 168.084 226.682C168.494 226.272 168.979 225.946 169.539 225.705C170.105 225.464 170.698 225.344 171.316 225.344C172.091 225.344 172.811 225.526 173.475 225.891C174.139 226.249 174.679 226.737 175.096 227.355L174.52 227.736C174.168 227.216 173.709 226.805 173.143 226.506C172.583 226.2 171.974 226.047 171.316 226.047C170.249 226.047 169.337 226.425 168.582 227.18C167.827 227.935 167.449 228.846 167.449 229.914C167.449 230.572 167.557 231.154 167.771 231.662C167.986 232.163 168.279 232.567 168.65 232.873C169.028 233.173 169.445 233.4 169.9 233.557C170.363 233.706 170.857 233.781 171.385 233.781C172.465 233.781 173.471 233.557 174.402 233.107V229.553H175.105ZM189.365 229.953H193.604C194.248 229.953 194.792 229.745 195.234 229.328C195.684 228.911 195.908 228.319 195.908 227.551C195.908 226.984 195.674 226.477 195.205 226.027C194.736 225.572 194.202 225.344 193.604 225.344H187.568V238H186.865V224.641H193.604C194.398 224.641 195.098 224.937 195.703 225.529C196.309 226.115 196.611 226.789 196.611 227.551C196.611 228.488 196.318 229.24 195.732 229.807C195.146 230.373 194.437 230.656 193.604 230.656H189.365V229.953ZM189.365 231.359H193.604C194.619 231.359 195.492 231.005 196.221 230.295C196.95 229.579 197.314 228.664 197.314 227.551C197.314 226.594 196.94 225.754 196.191 225.031C195.449 224.302 194.587 223.938 193.604 223.938H186.162V238H185.459V223.234H193.604C194.378 223.234 195.104 223.433 195.781 223.83C196.465 224.227 197.008 224.761 197.412 225.432C197.816 226.096 198.018 226.802 198.018 227.551C198.018 228.833 197.581 229.908 196.709 230.773C195.843 231.633 194.808 232.063 193.604 232.063H189.365V231.359ZM189.365 232.766H193.604C194.515 232.766 195.361 232.541 196.143 232.092C196.924 231.643 197.549 231.018 198.018 230.217C198.486 229.41 198.721 228.521 198.721 227.551C198.721 226.672 198.486 225.848 198.018 225.08C197.555 224.305 196.93 223.687 196.143 223.225C195.355 222.762 194.508 222.531 193.604 222.531H184.756V238H184.053V221.828H193.604C194.626 221.828 195.586 222.092 196.484 222.619C197.383 223.14 198.096 223.843 198.623 224.729C199.157 225.607 199.424 226.548 199.424 227.551C199.424 228.71 199.173 229.729 198.672 230.607C198.177 231.486 197.503 232.173 196.65 232.668L198.467 238H197.725L195.986 233C195.726 233.104 195.527 233.176 195.391 233.215L197.021 238H196.279L194.687 233.381C194.629 233.394 194.421 233.417 194.062 233.449L195.576 238H194.834L193.34 233.469H192.705L194.131 238H193.389L191.953 233.469H189.365V232.766ZM188.975 238H188.271V226.047H193.604C194.04 226.047 194.414 226.197 194.727 226.496C195.046 226.789 195.205 227.141 195.205 227.551C195.205 228.684 194.671 229.25 193.604 229.25H189.365V228.547H193.604C193.883 228.547 194.102 228.475 194.258 228.332C194.421 228.182 194.502 227.922 194.502 227.551C194.502 227.323 194.414 227.134 194.238 226.984C194.069 226.828 193.857 226.75 193.604 226.75H188.975V238Z" fill="#3BBA9C"/>
<path d="M210.307 227.18C209.551 227.935 209.174 228.846 209.174 229.914C209.174 230.982 209.551 231.893 210.307 232.648C211.062 233.404 211.973 233.781 213.041 233.781C214.109 233.781 215.02 233.404 215.775 232.648C216.531 231.893 216.908 230.982 216.908 229.914C216.908 228.846 216.531 227.935 215.775 227.18C215.02 226.425 214.109 226.047 213.041 226.047C211.973 226.047 211.062 226.425 210.307 227.18ZM208.832 231.691C208.591 231.125 208.471 230.533 208.471 229.914C208.471 229.296 208.591 228.706 208.832 228.147C209.073 227.58 209.398 227.092 209.809 226.682C210.219 226.272 210.704 225.946 211.264 225.705C211.83 225.464 212.423 225.344 213.041 225.344C213.66 225.344 214.249 225.464 214.809 225.705C215.375 225.946 215.863 226.272 216.273 226.682C216.684 227.092 217.009 227.58 217.25 228.147C217.491 228.706 217.611 229.296 217.611 229.914C217.611 230.533 217.491 231.125 217.25 231.691C217.009 232.251 216.684 232.736 216.273 233.147C215.863 233.557 215.375 233.882 214.809 234.123C214.249 234.364 213.66 234.484 213.041 234.484C212.423 234.484 211.83 234.364 211.264 234.123C210.704 233.882 210.219 233.557 209.809 233.147C209.398 232.736 209.073 232.251 208.832 231.691ZM208.471 227.268C208.002 228.075 207.768 228.957 207.768 229.914C207.768 230.871 208.002 231.753 208.471 232.561C208.946 233.368 209.587 234.009 210.395 234.484C211.202 234.953 212.084 235.188 213.041 235.188C213.998 235.188 214.88 234.953 215.687 234.484C216.495 234.009 217.133 233.368 217.602 232.561C218.077 231.753 218.314 230.871 218.314 229.914C218.314 228.957 218.077 228.075 217.602 227.268C217.133 226.46 216.495 225.822 215.687 225.354C214.88 224.878 213.998 224.641 213.041 224.641C212.084 224.641 211.202 224.878 210.395 225.354C209.587 225.822 208.946 226.46 208.471 227.268ZM207.865 232.912C207.331 231.994 207.064 230.995 207.064 229.914C207.064 228.833 207.331 227.834 207.865 226.916C208.399 225.998 209.125 225.272 210.043 224.738C210.961 224.204 211.96 223.938 213.041 223.938C214.122 223.938 215.121 224.204 216.039 224.738C216.957 225.272 217.683 225.998 218.217 226.916C218.751 227.834 219.018 228.833 219.018 229.914C219.018 230.995 218.751 231.994 218.217 232.912C217.683 233.83 216.957 234.556 216.039 235.09C215.121 235.624 214.122 235.891 213.041 235.891C211.96 235.891 210.961 235.624 210.043 235.09C209.125 234.556 208.399 233.83 207.865 232.912ZM206.889 227.316C206.537 228.143 206.361 229.009 206.361 229.914C206.361 230.819 206.537 231.685 206.889 232.512C207.24 233.339 207.712 234.051 208.305 234.65C208.904 235.243 209.617 235.715 210.443 236.066C211.27 236.418 212.136 236.594 213.041 236.594C213.946 236.594 214.812 236.418 215.639 236.066C216.465 235.715 217.175 235.243 217.768 234.65C218.367 234.051 218.842 233.339 219.193 232.512C219.545 231.685 219.721 230.819 219.721 229.914C219.721 229.009 219.545 228.143 219.193 227.316C218.842 226.49 218.367 225.78 217.768 225.188C217.175 224.589 216.465 224.113 215.639 223.762C214.812 223.41 213.946 223.234 213.041 223.234C212.136 223.234 211.27 223.41 210.443 223.762C209.617 224.113 208.904 224.589 208.305 225.188C207.712 225.78 207.24 226.49 206.889 227.316ZM206.645 233.615C205.987 232.482 205.658 231.249 205.658 229.914C205.658 228.579 205.987 227.346 206.645 226.213C207.309 225.08 208.207 224.185 209.34 223.527C210.473 222.863 211.706 222.531 213.041 222.531C214.376 222.531 215.609 222.863 216.742 223.527C217.875 224.185 218.77 225.08 219.428 226.213C220.092 227.346 220.424 228.579 220.424 229.914C220.424 231.249 220.092 232.482 219.428 233.615C218.77 234.748 217.875 235.647 216.742 236.311C215.609 236.968 214.376 237.297 213.041 237.297C211.706 237.297 210.473 236.968 209.34 236.311C208.207 235.647 207.309 234.748 206.645 233.615ZM205.59 226.779C205.167 227.775 204.955 228.82 204.955 229.914C204.955 231.008 205.167 232.056 205.59 233.059C206.02 234.055 206.596 234.914 207.318 235.637C208.041 236.359 208.9 236.936 209.896 237.365C210.899 237.788 211.947 238 213.041 238C214.135 238 215.18 237.788 216.176 237.365C217.178 236.936 218.041 236.359 218.764 235.637C219.486 234.914 220.059 234.055 220.482 233.059C220.912 232.056 221.127 231.008 221.127 229.914C221.127 228.82 220.912 227.775 220.482 226.779C220.059 225.777 219.486 224.914 218.764 224.191C218.041 223.469 217.178 222.896 216.176 222.473C215.18 222.043 214.135 221.828 213.041 221.828C211.947 221.828 210.899 222.043 209.896 222.473C208.9 222.896 208.041 223.469 207.318 224.191C206.596 224.914 206.02 225.777 205.59 226.779ZM204.945 233.332C204.483 232.245 204.252 231.105 204.252 229.914C204.252 228.723 204.483 227.587 204.945 226.506C205.414 225.419 206.039 224.484 206.82 223.703C207.608 222.915 208.542 222.29 209.623 221.828C210.71 221.359 211.85 221.125 213.041 221.125C214.232 221.125 215.368 221.359 216.449 221.828C217.536 222.29 218.471 222.915 219.252 223.703C220.04 224.484 220.665 225.419 221.127 226.506C221.596 227.587 221.83 228.723 221.83 229.914C221.83 231.105 221.596 232.245 221.127 233.332C220.665 234.413 220.04 235.347 219.252 236.135C218.471 236.916 217.536 237.538 216.449 238C215.368 238.469 214.232 238.703 213.041 238.703C211.85 238.703 210.71 238.469 209.623 238C208.542 237.538 207.608 236.916 206.82 236.135C206.039 235.347 205.414 234.413 204.945 233.332ZM231.979 227.18C231.223 227.935 230.846 228.846 230.846 229.914C230.846 230.982 231.223 231.893 231.979 232.648C232.734 233.404 233.645 233.781 234.713 233.781C235.781 233.781 236.692 233.404 237.447 232.648C238.202 231.893 238.58 230.982 238.58 229.914C238.58 228.846 238.202 227.935 237.447 227.18C236.692 226.425 235.781 226.047 234.713 226.047C233.645 226.047 232.734 226.425 231.979 227.18ZM230.504 231.691C230.263 231.125 230.143 230.533 230.143 229.914C230.143 229.296 230.263 228.706 230.504 228.147C230.745 227.58 231.07 227.092 231.48 226.682C231.891 226.272 232.376 225.946 232.936 225.705C233.502 225.464 234.094 225.344 234.713 225.344C235.331 225.344 235.921 225.464 236.48 225.705C237.047 225.946 237.535 226.272 237.945 226.682C238.355 227.092 238.681 227.58 238.922 228.147C239.163 228.706 239.283 229.296 239.283 229.914C239.283 230.533 239.163 231.125 238.922 231.691C238.681 232.251 238.355 232.736 237.945 233.147C237.535 233.557 237.047 233.882 236.48 234.123C235.921 234.364 235.331 234.484 234.713 234.484C234.094 234.484 233.502 234.364 232.936 234.123C232.376 233.882 231.891 233.557 231.48 233.147C231.07 232.736 230.745 232.251 230.504 231.691ZM230.143 227.268C229.674 228.075 229.439 228.957 229.439 229.914C229.439 230.871 229.674 231.753 230.143 232.561C230.618 233.368 231.259 234.009 232.066 234.484C232.874 234.953 233.756 235.188 234.713 235.188C235.67 235.188 236.552 234.953 237.359 234.484C238.167 234.009 238.805 233.368 239.273 232.561C239.749 231.753 239.986 230.871 239.986 229.914C239.986 228.957 239.749 228.075 239.273 227.268C238.805 226.46 238.167 225.822 237.359 225.354C236.552 224.878 235.67 224.641 234.713 224.641C233.756 224.641 232.874 224.878 232.066 225.354C231.259 225.822 230.618 226.46 230.143 227.268ZM229.537 232.912C229.003 231.994 228.736 230.995 228.736 229.914C228.736 228.833 229.003 227.834 229.537 226.916C230.071 225.998 230.797 225.272 231.715 224.738C232.633 224.204 233.632 223.938 234.713 223.938C235.794 223.938 236.793 224.204 237.711 224.738C238.629 225.272 239.355 225.998 239.889 226.916C240.423 227.834 240.689 228.833 240.689 229.914C240.689 230.995 240.423 231.994 239.889 232.912C239.355 233.83 238.629 234.556 237.711 235.09C236.793 235.624 235.794 235.891 234.713 235.891C233.632 235.891 232.633 235.624 231.715 235.09C230.797 234.556 230.071 233.83 229.537 232.912ZM228.561 227.316C228.209 228.143 228.033 229.009 228.033 229.914C228.033 230.819 228.209 231.685 228.561 232.512C228.912 233.339 229.384 234.051 229.977 234.65C230.576 235.243 231.288 235.715 232.115 236.066C232.942 236.418 233.808 236.594 234.713 236.594C235.618 236.594 236.484 236.418 237.311 236.066C238.137 235.715 238.847 235.243 239.439 234.65C240.038 234.051 240.514 233.339 240.865 232.512C241.217 231.685 241.393 230.819 241.393 229.914C241.393 229.009 241.217 228.143 240.865 227.316C240.514 226.49 240.038 225.78 239.439 225.188C238.847 224.589 238.137 224.113 237.311 223.762C236.484 223.41 235.618 223.234 234.713 223.234C233.808 223.234 232.942 223.41 232.115 223.762C231.288 224.113 230.576 224.589 229.977 225.188C229.384 225.78 228.912 226.49 228.561 227.316ZM228.316 233.615C227.659 232.482 227.33 231.249 227.33 229.914C227.33 228.579 227.659 227.346 228.316 226.213C228.98 225.08 229.879 224.185 231.012 223.527C232.145 222.863 233.378 222.531 234.713 222.531C236.048 222.531 237.281 222.863 238.414 223.527C239.547 224.185 240.442 225.08 241.1 226.213C241.764 227.346 242.096 228.579 242.096 229.914C242.096 231.249 241.764 232.482 241.1 233.615C240.442 234.748 239.547 235.647 238.414 236.311C237.281 236.968 236.048 237.297 234.713 237.297C233.378 237.297 232.145 236.968 231.012 236.311C229.879 235.647 228.98 234.748 228.316 233.615ZM227.262 226.779C226.839 227.775 226.627 228.82 226.627 229.914C226.627 231.008 226.839 232.056 227.262 233.059C227.691 234.055 228.268 234.914 228.99 235.637C229.713 236.359 230.572 236.936 231.568 237.365C232.571 237.788 233.619 238 234.713 238C235.807 238 236.852 237.788 237.848 237.365C238.85 236.936 239.713 236.359 240.436 235.637C241.158 234.914 241.731 234.055 242.154 233.059C242.584 232.056 242.799 231.008 242.799 229.914C242.799 228.82 242.584 227.775 242.154 226.779C241.731 225.777 241.158 224.914 240.436 224.191C239.713 223.469 238.85 222.896 237.848 222.473C236.852 222.043 235.807 221.828 234.713 221.828C233.619 221.828 232.571 222.043 231.568 222.473C230.572 222.896 229.713 223.469 228.99 224.191C228.268 224.914 227.691 225.777 227.262 226.779ZM226.617 233.332C226.155 232.245 225.924 231.105 225.924 229.914C225.924 228.723 226.155 227.587 226.617 226.506C227.086 225.419 227.711 224.484 228.492 223.703C229.28 222.915 230.214 222.29 231.295 221.828C232.382 221.359 233.521 221.125 234.713 221.125C235.904 221.125 237.04 221.359 238.121 221.828C239.208 222.29 240.143 222.915 240.924 223.703C241.712 224.484 242.337 225.419 242.799 226.506C243.268 227.587 243.502 228.723 243.502 229.914C243.502 231.105 243.268 232.245 242.799 233.332C242.337 234.413 241.712 235.347 240.924 236.135C240.143 236.916 239.208 237.538 238.121 238C237.04 238.469 235.904 238.703 234.713 238.703C233.521 238.703 232.382 238.469 231.295 238C230.214 237.538 229.28 236.916 228.492 236.135C227.711 235.347 227.086 234.413 226.617 233.332ZM246.395 221.828H247.156L253.172 237.053L259.187 221.828H259.939L253.553 238H252.791L246.395 221.828ZM253.66 234.484L253.26 235.383L247.908 221.828H248.66L253.66 234.484ZM254.412 232.561L254.041 233.527L249.422 221.828H250.184L254.412 232.561ZM255.154 230.607L254.783 231.594L250.936 221.828H251.687L255.154 230.607ZM263.719 221.828H264.48L258.084 238H257.332L263.719 221.828ZM262.215 221.828H262.967L256.57 238H255.818L262.215 221.828ZM260.691 221.828H261.453L255.057 238H254.305L260.691 221.828ZM275.303 228.156H274.121C273.62 228.156 273.258 228.029 273.037 227.775C272.816 227.515 272.705 227.173 272.705 226.75C272.705 225.813 273.405 225.344 274.805 225.344C276.12 225.344 277.109 225.539 277.773 225.93L277.207 226.359C276.751 226.151 275.951 226.047 274.805 226.047C274.245 226.047 273.867 226.109 273.672 226.232C273.483 226.356 273.389 226.529 273.389 226.75C273.389 226.971 273.441 227.144 273.545 227.268C273.649 227.391 273.841 227.453 274.121 227.453H275.332C276.211 227.453 277.002 227.603 277.705 227.902C278.415 228.202 278.997 228.612 279.453 229.133C279.909 229.647 280.257 230.243 280.498 230.92C280.739 231.591 280.859 232.31 280.859 233.078C280.859 233.703 280.771 234.296 280.596 234.855C280.42 235.415 280.153 235.93 279.795 236.398C279.443 236.867 279.017 237.274 278.516 237.619C278.021 237.958 277.428 238.221 276.738 238.41C276.055 238.605 275.312 238.703 274.512 238.703C273.255 238.703 272.077 238.511 270.977 238.127C269.883 237.749 268.971 237.219 268.242 236.535L268.809 236.115C269.473 236.714 270.303 237.18 271.299 237.512C272.301 237.837 273.372 238 274.512 238C275.404 238 276.208 237.873 276.924 237.619C277.646 237.359 278.239 237.004 278.701 236.555C279.17 236.105 279.528 235.585 279.775 234.992C280.029 234.4 280.156 233.762 280.156 233.078C280.156 232.173 279.974 231.356 279.609 230.627C279.245 229.891 278.688 229.296 277.939 228.84C277.197 228.384 276.318 228.156 275.303 228.156ZM274.121 228.859H275.234C276.556 228.859 277.588 229.263 278.33 230.07C279.079 230.878 279.453 231.88 279.453 233.078C279.453 234.296 279.02 235.305 278.154 236.105C277.288 236.9 276.074 237.297 274.512 237.297C273.47 237.297 272.497 237.154 271.592 236.867C270.687 236.581 269.935 236.177 269.336 235.656L269.883 235.217C270.417 235.653 271.087 235.992 271.895 236.232C272.708 236.473 273.581 236.594 274.512 236.594C275.885 236.594 276.934 236.265 277.656 235.607C278.385 234.95 278.75 234.107 278.75 233.078C278.75 232.063 278.444 231.223 277.832 230.559C277.227 229.895 276.357 229.563 275.225 229.563H274.121C273.171 229.563 272.458 229.302 271.982 228.781C271.507 228.26 271.27 227.583 271.27 226.75C271.27 225.917 271.562 225.24 272.148 224.719C272.741 224.198 273.626 223.938 274.805 223.938C275.632 223.938 276.4 224.035 277.109 224.23C277.819 224.419 278.405 224.693 278.867 225.051L278.311 225.48C277.497 224.921 276.328 224.641 274.805 224.641C273.822 224.641 273.102 224.836 272.646 225.227C272.197 225.611 271.973 226.119 271.973 226.75C271.973 227.388 272.139 227.899 272.471 228.283C272.809 228.667 273.359 228.859 274.121 228.859ZM274.121 230.266H275.195C276.146 230.266 276.859 230.529 277.334 231.057C277.809 231.584 278.047 232.258 278.047 233.078C278.047 233.911 277.751 234.589 277.158 235.109C276.572 235.63 275.69 235.891 274.512 235.891C273.685 235.891 272.913 235.796 272.197 235.607C271.488 235.412 270.902 235.135 270.439 234.777L270.996 234.348C271.81 234.908 272.982 235.188 274.512 235.188C275.495 235.188 276.211 234.995 276.66 234.611C277.116 234.221 277.344 233.71 277.344 233.078C277.344 232.447 277.174 231.939 276.836 231.555C276.497 231.164 275.947 230.969 275.186 230.969H274.121C272.786 230.969 271.742 230.572 270.986 229.777C270.238 228.977 269.863 227.967 269.863 226.75C269.863 225.533 270.296 224.527 271.162 223.732C272.028 222.932 273.242 222.531 274.805 222.531C275.846 222.531 276.816 222.675 277.715 222.961C278.62 223.247 279.372 223.651 279.971 224.172L279.424 224.611C278.89 224.175 278.219 223.837 277.412 223.596C276.605 223.355 275.736 223.234 274.805 223.234C273.431 223.234 272.38 223.563 271.65 224.221C270.928 224.878 270.566 225.721 270.566 226.75C270.566 227.772 270.872 228.615 271.484 229.279C272.096 229.937 272.975 230.266 274.121 230.266ZM274.121 231.672H275.195C275.697 231.672 276.058 231.802 276.279 232.063C276.501 232.323 276.611 232.661 276.611 233.078C276.611 234.016 275.911 234.484 274.512 234.484C273.19 234.484 272.197 234.289 271.533 233.898L272.1 233.469C272.555 233.677 273.359 233.781 274.512 233.781C275.072 233.781 275.446 233.719 275.635 233.596C275.83 233.472 275.928 233.3 275.928 233.078C275.928 232.863 275.872 232.694 275.762 232.57C275.658 232.44 275.462 232.375 275.176 232.375H274.121C273.223 232.375 272.409 232.229 271.68 231.936C270.957 231.643 270.361 231.239 269.893 230.725C269.43 230.21 269.076 229.615 268.828 228.938C268.581 228.26 268.457 227.531 268.457 226.75C268.457 226.125 268.545 225.533 268.721 224.973C268.896 224.413 269.16 223.898 269.512 223.43C269.87 222.961 270.296 222.557 270.791 222.219C271.292 221.874 271.885 221.607 272.568 221.418C273.258 221.223 274.004 221.125 274.805 221.125C276.061 221.125 277.236 221.317 278.33 221.701C279.424 222.079 280.335 222.609 281.064 223.293L280.498 223.713C279.834 223.114 279.004 222.652 278.008 222.326C277.012 221.994 275.944 221.828 274.805 221.828C273.913 221.828 273.105 221.958 272.383 222.219C271.667 222.473 271.074 222.824 270.605 223.273C270.143 223.723 269.785 224.244 269.531 224.836C269.284 225.428 269.16 226.066 269.16 226.75C269.16 227.668 269.346 228.495 269.717 229.23C270.088 229.966 270.654 230.559 271.416 231.008C272.178 231.451 273.079 231.672 274.121 231.672ZM290.832 229.865L290.48 230.637L286.262 221.828H286.965L290.832 229.865ZM291.535 228.322L291.174 229.094L287.668 221.828H288.371L291.535 228.322ZM292.238 226.789L291.887 227.561L289.074 221.828H289.777L292.238 226.789ZM291.35 232.551L296.437 221.828H297.141L292.053 232.551V238H291.35V232.551ZM292.756 232.551L297.844 221.828H298.547L293.459 232.551V238H292.756V232.551ZM294.162 232.551L299.25 221.828H299.953L294.865 232.551V238H294.162V232.551ZM290.295 231.809L295.031 221.828H295.734L290.646 232.551V238H289.943V232.551L284.855 221.828H285.559L290.295 231.809Z" fill="#3BBA9C"/>
</svg>
